<svg width="512" height="512" viewBox="0 0 512 512" fill="none" xmlns="http://www.w3.org/2000/svg">
<path d="M255.5 86L108 171.13V341.391L255.5 426.521L403 341.391V171.13L255.5 86ZM255.5 86L108 171.13V341.391L255.5 426.521L403 341.391V171.13L255.5 86Z" fill="white"/>
<path d="M313.731 360.013H292.744L267.619 336.957V325.133L293.631 300.304V260.99L327.624 238.821L366.347 268.084L313.731 360.013ZM226.828 297.939L230.67 260.99L217.96 227.884H293.04L280.625 260.99L284.172 297.939H255.204H226.828ZM243.972 336.957L218.847 360.309H197.564L144.653 268.084L183.671 239.116L217.96 260.99V300.304L243.972 325.133V336.957ZM197.269 159.602H313.436L327.329 218.721H183.671L197.269 159.602ZM255.5 86L108 171.13V341.391L255.5 426.521L403 341.391V171.13L255.5 86Z" fill="#03316C"/>
</svg>
